:FULLY-SPECIFIED
:FORCE-ALL-JOINTS-BE-3DOF
:DEGREES
1325
root -1.63445 14.8639 8.39516 -7.37025 27.1586 3.03217
lfemur 3.75271 3.50474 -17.652
ltibia 54.0882 -0 0
lfoot -29.5887 26.6402 0.446647
ltoes -18.3954 0 0
rfemur -53.8459 -9.3755 2.8251
rtibia 45.8567 -0 0
rfoot 19.2533 9.76171 -0.881145
rtoes 6.94286 -0 0
lowerback 13.4602 0.573797 -11.5387
upperback -1.6181 -1.12532 0.503896
thorax -9.28887 0.0836414 7.29491
lowerneck -4.33195 -9.5341 -11.3049
upperneck 15.2904 -13.0882 7.71927
head 6.64047 -6.47855 3.35629
lclavicle 6.29216e-14 4.02539e-15 0
lhumerus -44.8291 -41.903 118.73
lradius 112.765 -0 0
lwrist 40.3057 0 0
lhand -12.119 47.1638 -0.0540299
lfingers 7.12502 -0 0
lthumb 13.944 76.7202 -0.0482901
rclavicle 6.29216e-14 4.02539e-15 0
rhumerus 41.8838 16.4508 -51.339
rradius 100.045 -0 0
rwrist -17.9541 0 0
rhand -18.524 -30.1127 0.175184
rfingers 7.12502 -0 0
rthumb 7.7599 -59.4746 0.16298
1326
root -1.65134 14.8409 8.5742 -7.08826 27.5495 3.19469
lfemur 4.67492 3.20305 -17.4347
ltibia 53.4155 -0 0
lfoot -29.5409 26.9762 0.48025
ltoes -18.7606 0 0
rfemur -54.4209 -9.84703 2.81879
rtibia 46.551 -0 0
rfoot 18.6793 9.93178 -0.906824
rtoes 6.8324 -0 0
lowerback 13.4523 0.611583 -11.6193
upperback -1.64143 -1.09496 0.43622
thorax -9.32189 0.103415 7.25859
lowerneck -4.13506 -9.6687 -11.3519
upperneck 15.0219 -13.2854 7.80052
head 6.5515 -6.5771 3.38781
lclavicle 6.29216e-14 4.02539e-15 0
lhumerus -46.5788 -40.7247 118.768
lradius 112.532 -0 0
lwrist 40.8241 0 0
lhand -11.9665 47.0357 -0.0559056
lfingers 7.12502 -0 0
lthumb 14.0911 76.5846 -0.0498338
rclavicle 6.29216e-14 4.02539e-15 0
rhumerus 43.1846 15.2703 -50.1095
rradius 99.498 -0 0
rwrist -16.1098 0 0
rhand -19.4985 -30.2078 0.186781
rfingers 7.12502 -0 0
rthumb 6.81972 -59.5714 0.173472
1327
root -1.66742 14.818 8.74047 -6.78807 27.927 3.35826
lfemur 5.58191 2.90186 -17.2142
ltibia 52.7177 -0 0
lfoot -29.4672 27.3156 0.511962
ltoes -19.1079 0 0
rfemur -54.9726 -10.3185 2.83107
rtibia 47.2642 -0 0
rfoot 18.0694 10.0848 -0.925097
rtoes 6.69044 -0 0
lowerback 13.4382 0.651423 -11.6922
upperback -1.66782 -1.05985 0.368245
thorax -9.35484 0.125131 7.21673
lowerneck -3.93323 -9.80259 -11.397
upperneck 14.7409 -13.4817 7.88497
head 6.45803 -6.67534 3.42017
lclavicle 6.29216e-14 4.02539e-15 0
lhumerus -48.2843 -39.5298 118.727
lradius 112.281 -0 0
lwrist 41.3654 0 0
lhand -11.8193 46.9025 -0.0572843
lfingers 7.12502 -0 0
lthumb 14.233 76.444 -0.05091
rclavicle 6.29216e-14 4.02539e-15 0
rhumerus 44.459 14.0564 -48.8908
rradius 98.9269 -0 0
rwrist -14.2287 0 0
rhand -20.4927 -30.3048 0.197069
rfingers 7.12502 -0 0
rthumb 5.8606 -59.67 0.182699
1328
root -1.68274 14.795 8.89493 -6.4708 28.2904 3.52253
lfemur 6.47153 2.60186 -16.9912
ltibia 51.9973 -0 0
lfoot -29.3683 27.6575 0.541497
ltoes -19.4367 0 0
rfemur -55.5 -10.7884 2.86139
rtibia 47.9938 -0 0
rfoot 17.4259 10.2206 -0.936154
rtoes 6.51792 -0 0
lowerback 13.4178 0.693165 -11.7574
upperback -1.69718 -1.02019 0.300152
thorax -9.38764 0.14869 7.16953
lowerneck -3.72709 -9.93543 -11.4401
upperneck 14.4483 -13.6767 7.9724
head 6.36037 -6.77299 3.45327
lclavicle 6.29216e-14 4.02539e-15 0
lhumerus -49.9456 -38.3237 118.612
lradius 112.011 -0 0
lwrist 41.9278 0 0
lhand -11.6779 46.7645 -0.0581655
lfingers 7.12502 -0 0
lthumb 14.3694 76.2988 -0.0515196
rclavicle 6.29216e-14 4.02539e-15 0
rhumerus 45.7034 12.8131 -47.6863
rradius 98.3341 -0 0
rwrist -12.3164 0 0
rhand -21.5034 -30.4036 0.205924
rfingers 7.12502 -0 0
rthumb 4.88545 -59.7699 0.190547
1329
root -1.69737 14.7721 9.03854 -6.13756 28.639 3.68712
lfemur 7.34166 2.30382 -16.7661
ltibia 51.2566 -0 0
lfoot -29.2449 28.0008 0.568574
ltoes -19.7464 0 0
rfemur -56.0024 -11.2553 2.90915
rtibia 48.7378 -0 0
rfoot 16.751 10.339 -0.940231
rtoes 6.31581 -0 0
lowerback 13.3913 0.736659 -11.8149
upperback -1.72937 -0.976154 0.232118
thorax -9.42021 0.173996 7.11722
lowerneck -3.51729 -10.0669 -11.4813
upperneck 14.1452 -13.8697 8.06261
head 6.25886 -6.8698 3.48703
lclavicle 6.29216e-14 4.02539e-15 0
lhumerus -51.5625 -37.1118 118.427
lradius 111.725 -0 0
lwrist 42.5094 0 0
lhand -11.5424 46.6223 -0.0585537
lfingers 7.12502 -0 0
lthumb 14.5 76.1493 -0.0516687
rclavicle 6.29216e-14 4.02539e-15 0
rhumerus 46.9145 11.5442 -46.4988
rradius 97.7217 -0 0
rwrist -10.3787 0 0
rhand -22.5278 -30.5037 0.213239
rfingers 7.12502 -0 0
rthumb 3.89714 -59.871 0.196923
1330
root -1.71135 14.7492 9.17224 -5.78954 28.9717 3.85157
lfemur 8.19021 2.0085 -16.5394
ltibia 50.4978 -0 0
lfoot -29.0977 28.3446 0.592924
ltoes -20.0366 0 0
rfemur -56.4789 -11.7178 2.9737
rtibia 49.4939 -0 0
rfoot 16.0471 10.4398 -0.937607
rtoes 6.08506 -0 0
lowerback 13.359 0.781757 -11.8646
upperback -1.76427 -0.927935 0.164322
thorax -9.45247 0.200949 7.06
lowerneck -3.30443 -10.1966 -11.5203
upperneck 13.8325 -14.0602 8.15535
head 6.15382 -6.96552 3.52136
lclavicle 6.29216e-14 4.02539e-15 0
lhumerus -53.135 -35.8995 118.176
lradius 111.422 -0 0
lwrist 43.1084 0 0
lhand -11.4132 46.4763 -0.0584586
lfingers 7.12502 -0 0
lthumb 14.6246 75.9962 -0.0513681
rclavicle 6.29216e-14 4.02539e-15 0
rhumerus 48.0898 10.2541 -45.3308
rradius 97.0914 -0 0
rwrist -8.42115 0 0
rhand -23.5628 -30.6049 0.218928
rfingers 7.12502 -0 0
rthumb 2.89856 -59.9727 0.201752
1331
root -1.72474 14.7262 9.29697 -5.42791 29.288 4.01541
lfemur 9.01508 1.71674 -16.3116
ltibia 49.7233 -0 0
lfoot -28.9273 28.688 0.614291
ltoes -20.3064 0 0
rfemur -56.9286 -12.1745 3.05437
rtibia 50.2598 -0 0
rfoot 15.3164 10.5228 -0.928599
rtoes 5.82664 -0 0
lowerback 13.3209 0.828317 -11.9064
upperback -1.80178 -0.875717 0.0969433
thorax -9.48434 0.229454 6.99809
lowerneck -3.08916 -10.3243 -11.5572
upperneck 13.5111 -14.2476 8.25039
head 6.04559 -7.05987 3.55616
lclavicle 6.29216e-14 4.02539e-15 0
lhumerus -54.6629 -34.6916 117.862
lradius 111.105 -0 0
lwrist 43.7229 0 0
lhand -11.2905 46.327 -0.0578944
lfingers 7.12502 -0 0
lthumb 14.7429 75.8399 -0.0506333
rclavicle 6.29216e-14 4.02539e-15 0
rhumerus 49.2269 8.94745 -44.1845
rradius 96.4453 -0 0
rwrist -6.44943 0 0
rhand -24.6055 -30.7068 0.222927
rfingers 7.12502 -0 0
rthumb 1.8926 -60.0749 0.20498
1332
root -1.73759 14.7031 9.4137 -5.05392 29.5869 4.17811
lfemur 9.81417 1.42939 -16.083
ltibia 48.9353 -0 0
lfoot -28.7345 29.03 0.632432
ltoes -20.5555 0 0
rfemur -57.3506 -12.624 3.15046
rtibia 51.0332 -0 0
rfoot 14.5614 10.5878 -0.913561
rtoes 5.5415 -0 0
lowerback 13.2773 0.876195 -11.9404
upperback -1.84176 -0.819683 0.0301591
thorax -9.51574 0.259414 6.93169
lowerneck -2.87212 -10.4496 -11.5918
upperneck 13.1819 -14.4315 8.34746
head 5.93449 -7.15261 3.59133
lclavicle 6.29216e-14 4.02539e-15 0
lhumerus -56.146 -33.493 117.491
lradius 110.773 -0 0
lwrist 44.351 0 0
lhand -11.1746 46.1747 -0.05688
lfingers 7.12502 -0 0
lthumb 14.8546 75.6808 -0.0494846
rclavicle 6.29216e-14 4.02539e-15 0
rhumerus 50.3236 7.62887 -43.0617
rradius 95.7853 -0 0
rwrist -4.4692 0 0
rhand -25.6528 -30.8091 0.225191
rfingers 7.12502 -0 0
rthumb 0.882148 -60.1773 0.206574
1333
root -1.74997 14.6798 9.52338 -4.66881 29.8678 4.33909
lfemur 10.5854 1.14733 -15.8541
ltibia 48.1362 -0 0
lfoot -28.52 29.3696 0.647119
ltoes -20.7831 0 0
rfemur -57.744 -13.065 3.26124
rtibia 51.8121 -0 0
rfoot 13.7842 10.6345 -0.892881
rtoes 5.23061 -0 0
lowerback 13.2283 0.925252 -11.9665
upperback -1.88409 -0.760017 -0.0358522
thorax -9.54659 0.290733 6.86102
lowerneck -2.65392 -10.5723 -11.6241
upperneck 12.846 -14.6113 8.44628
head 5.82085 -7.24348 3.62678
lclavicle 6.29216e-14 4.02539e-15 0
lhumerus -57.5836 -32.3084 117.067
lradius 110.429 -0 0
lwrist 44.991 0 0
lhand -11.0659 46.02 -0.0554386
lfingers 7.12502 -0 0
lthumb 14.9593 75.5195 -0.0479462
rclavicle 6.29216e-14 4.02539e-15 0
rhumerus 51.3781 6.30333 -41.9637
rradius 95.1134 -0 0
rwrist -2.4861 0 0
rhand -26.7018 -30.9115 0.225699
rfingers 7.12502 -0 0
rthumb -0.129899 -60.2794 0.20652
1334
root -1.76192 14.6565 9.62694 -4.27388 30.1298 4.49774
lfemur 11.3268 0.871491 -15.625
ltibia 47.3283 -0 0
lfoot -28.2844 29.7059 0.658144
ltoes -20.9888 0 0
rfemur -58.1077 -13.4962 3.38595
rtibia 52.5941 -0 0
rfoot 12.9871 10.6628 -0.866975
rtoes 4.89491 -0 0
lowerback 13.174 0.975353 -11.9846
upperback -1.92866 -0.696903 -0.100912
thorax -9.57682 0.323315 6.7863
lowerneck -2.43522 -10.6918 -11.6539
upperneck 12.5044 -14.7864 8.54656
head 5.70501 -7.33222 3.6624
lclavicle 6.29216e-14 4.02539e-15 0
lhumerus -58.9751 -31.1422 116.594
lradius 110.072 -0 0
lwrist 45.6409 0 0
lhand -10.9647 45.8632 -0.0535979
lfingers 7.12502 -0 0
lthumb 15.0569 75.3563 -0.046047
rclavicle 6.29216e-14 4.02539e-15 0
rhumerus 52.389 4.9759 -40.8917
rradius 94.4314 -0 0
rwrist -0.505804 0 0
rhand -27.7494 -31.0136 0.22445
rfingers 7.12502 -0 0
rthumb -1.14066 -60.3811 0.204828
